<svg width="473" height="374" viewBox="0 0 473 374" fill="none" xmlns="http://www.w3.org/2000/svg">
<path d="M321.431 373.43C290.747 373.151 264.981 364.419 243.182 348.101C170.816 293.932 98.0197 240.055 37.6521 171.912C28.0936 161.121 19.6865 148.809 13.0665 136.001C-20.9251 70.2423 13.9682 7.66258 88.0169 0.637208C112.515 -1.68512 136.053 2.32382 158.199 12.9365C169.765 18.4828 181.085 24.7136 191.944 31.5476C192.324 31.7843 236.889 55.9385 283.946 30.6102C317.545 7.3285 353.791 -5.50594 395.116 3.18334C469.868 18.9012 495.891 88.0392 450.667 149.837C427.502 181.494 398.535 206.734 365.552 227.528C328.427 250.927 288.438 268.176 247.032 282.427C236.507 286.05 227.188 285.444 218.061 279.148C184.364 255.909 151.972 231.041 125.628 199.43C103.965 173.437 103.157 148.624 121.898 131.103C142.021 112.291 173.635 115.262 196.258 138.394C207.033 149.412 214.791 162.558 222.219 176.022C226.189 183.216 227.289 195.522 236.221 195.749C243.788 195.943 245.533 184.14 249.591 177.54C258.78 162.587 268.192 147.82 281.604 136.25C295.327 124.412 310.876 116.861 329.624 119.942C359.337 124.82 373.907 159.11 357.3 184.267C353.447 190.105 349.097 195.749 341.579 192.122C332.306 187.646 337.661 181.416 341.261 176.012C348.737 164.79 348.231 153.736 339.185 144.087C329.692 133.954 317.584 135.699 306.741 141.008C286.103 151.112 275.354 170.537 263.521 189.022C255.627 201.353 252.211 221.453 234.204 220.649C217.532 219.903 215.661 200.218 208.454 188.139C199.871 173.751 192.583 158.572 179.554 147.372C164.057 134.051 146.14 132.553 134.217 144.505C119.865 158.893 127.263 172.798 137.302 185.22C162.296 216.124 193.689 239.931 225.816 262.772C230.457 266.071 235.148 267.686 241.926 265.302C315.664 239.338 384.646 206.28 433.781 142.053C444.641 127.856 452.503 112.424 454.335 94.5521C458.575 53.107 425.348 20.3413 376.998 18.4147C345.864 17.1725 320.393 31.0156 293.686 46.0913C249.062 71.2899 206.55 59.0101 184.458 48.5434C183.605 48.138 126.225 2.36598 74.644 21.2852C23.4976 34.3629 3.91668 76.5735 26.9194 123.863C42.9552 156.824 69.6944 180.741 95.399 205.447C142.819 251.021 195.788 289.923 247.985 329.607C277.413 351.977 311.197 362.827 348.614 351.338C371.221 344.397 381.042 329.503 376.395 311.226C372.301 295.119 355.234 286.219 333.804 290.254C312.907 294.195 293.624 302.777 275.029 313.043C269.59 316.049 262.454 320.892 258.063 312.715C253.963 305.096 260.547 300.737 266.502 297.555C290.981 284.474 315.832 272.077 344.42 271.724C370.258 271.4 389.242 285.869 394.477 308.768C399.589 331.125 388.116 352.688 365.289 364.111C350.554 371.487 334.962 374.147 321.431 373.43Z" fill="#035678" fill-opacity="0.05"/>
<path d="M140.707 373.05C122.524 374.033 105.7 370.219 90.563 360.501C73.937 349.827 64.9558 334.245 66.85 314.57C68.7377 295.015 80.505 281.253 98.4804 273.677C104.526 271.13 113.264 266.512 117.095 276.21C120.231 284.14 113.06 287.014 106.732 289.784C93.0573 295.771 83.6252 305.557 85.0815 321.515C86.606 338.241 98.4479 346.658 113.144 351.163C138.563 358.957 163.421 355.996 187.348 345.15C194.795 341.77 203.167 336.208 207.552 346.441C211.308 355.198 201.496 358.604 195.301 361.396C177.942 369.226 159.72 373.929 140.707 373.05Z" fill="#035678" fill-opacity="0.05"/>
</svg>
