<svg width="97" height="97" viewBox="0 0 97 97" fill="none" xmlns="http://www.w3.org/2000/svg">
<g clip-path="url(#clip0_9_176)">
<path d="M64.106 76.2667C58.4584 76.2154 53.7158 74.6082 49.7034 71.6047C36.3838 61.6343 22.9848 51.7176 11.8735 39.1753C10.1142 37.1891 8.56675 34.9229 7.34827 32.5653C1.09175 20.4618 7.51424 8.94334 21.1437 7.65024C25.6528 7.22279 29.9852 7.96068 34.0615 9.91406C36.1904 10.9349 38.2739 12.0818 40.2727 13.3396C40.3425 13.3832 48.5452 17.829 57.2065 13.1671C63.3908 8.88185 70.0622 6.51953 77.6686 8.11889C91.4275 11.0119 96.2172 23.7375 87.8933 35.1121C83.6296 40.9388 78.2978 45.5846 72.2269 49.412C65.3937 53.7187 58.0333 56.8935 50.4121 59.5168C48.4748 60.1836 46.7596 60.072 45.0797 58.9132C38.8775 54.6357 32.9153 50.0585 28.0665 44.2402C24.0791 39.4559 23.9305 34.8888 27.3799 31.6639C31.0837 28.2013 36.9026 28.7481 41.0667 33.0059C43.0499 35.0339 44.4779 37.4535 45.845 39.9317C46.5758 41.2558 46.7781 43.5208 48.4223 43.5626C49.8151 43.5984 50.1362 41.4259 50.8831 40.2111C52.5744 37.4589 54.3069 34.7408 56.7754 32.6113C59.3013 30.4322 62.1633 29.0424 65.614 29.6096C71.0831 30.5075 73.7648 36.8189 70.7082 41.4492C69.9989 42.5238 69.1984 43.5626 67.8145 42.8952C66.1077 42.0713 67.0933 40.9245 67.756 39.9299C69.1321 37.8643 69.039 35.8297 67.3739 34.0536C65.6265 32.1886 63.3979 32.5098 61.4022 33.4871C57.6035 35.3467 55.625 38.9221 53.4472 42.3244C51.9941 44.5942 51.3655 48.2938 48.0509 48.1457C44.9824 48.0084 44.6379 44.3853 43.3114 42.162C41.7317 39.5138 40.3903 36.7198 37.9921 34.6584C35.1397 32.2065 31.8419 31.9307 29.6473 34.1306C27.0056 36.7789 28.3673 39.3382 30.2151 41.6247C34.8155 47.3129 40.5938 51.6949 46.5071 55.8989C47.3614 56.5061 48.2247 56.8034 49.4724 56.3646C63.0445 51.5856 75.7414 45.501 84.7854 33.6793C86.7841 31.0663 88.2312 28.2257 88.5685 24.9363C89.3488 17.3079 83.2332 11.277 74.3337 10.9224C68.6032 10.6937 63.9149 13.2417 58.9993 16.0166C50.7858 20.6546 42.9609 18.3944 38.8948 16.4679C38.7378 16.3933 28.1763 7.96844 18.6823 11.4507C9.26822 13.8578 5.66414 21.6271 9.89805 30.3314C12.8496 36.398 17.7712 40.8003 22.5024 45.3476C31.2305 53.736 40.9801 60.8964 50.5876 68.2007C56.0041 72.3182 62.2225 74.3151 69.1094 72.2005C73.2705 70.923 75.0782 68.1816 74.2227 64.8175C73.4693 61.8528 70.3279 60.2146 66.3835 60.9573C62.5371 61.6827 58.9879 63.2623 55.5653 65.1518C54.5642 65.7052 53.2508 66.5965 52.4424 65.0915C51.6878 63.6892 52.8997 62.8868 53.9958 62.3011C58.5014 59.8935 63.0756 57.6117 68.3375 57.5467C73.0932 57.487 76.5874 60.1502 77.5509 64.365C78.4918 68.4801 76.3802 72.4489 72.1786 74.5515C69.4664 75.9091 66.5966 76.3986 64.106 76.2667Z" fill="white"/>
<path d="M30.8419 76.1968C27.4951 76.3777 24.3985 75.6756 21.6123 73.887C18.5521 71.9223 16.899 69.0543 17.2477 65.4329C17.5951 61.8336 19.7611 59.3006 23.0696 57.906C24.1824 57.4374 25.7907 56.5872 26.4958 58.3723C27.0731 59.8319 25.7531 60.3608 24.5884 60.8707C22.0714 61.9727 20.3354 63.7739 20.6034 66.7111C20.884 69.7898 23.0636 71.339 25.7686 72.1683C30.4473 73.6028 35.0227 73.0578 39.4267 71.0614C40.7974 70.4394 42.3383 69.4155 43.1454 71.299C43.8367 72.9109 42.0308 73.5378 40.8906 74.0518C37.6954 75.4929 34.3415 76.3586 30.8419 76.1968Z" fill="white"/>
<path d="M48.4641 12.7892C46.2212 12.8894 44.2815 12.0948 42.564 10.7271C41.7753 10.0997 41.3807 9.21792 41.884 8.26988C42.4708 7.16365 43.5335 7.34872 44.2875 7.93198C47.008 10.0382 49.6957 9.80417 52.3977 8.01377C53.4508 7.31648 54.4896 7.18633 55.1743 8.27645C55.9385 9.49313 54.8316 10.2537 54.0239 10.8597C52.3947 12.0805 50.5392 12.7874 48.4641 12.7892Z" fill="white"/>
<path d="M48.4253 5.32844C46.0301 5.41322 44.2481 4.6216 42.6272 3.38403C41.8081 2.75897 41.3861 1.92198 41.8344 0.959024C42.3675 -0.186016 43.4535 -0.0194537 44.2021 0.539933C47.0886 2.69867 49.8586 2.35361 52.6359 0.406205C53.5624 -0.243925 54.3546 -0.107809 55.0346 0.769179C55.8895 1.86944 54.9749 2.55778 54.3146 3.08135C52.5201 4.50459 50.5189 5.50874 48.4253 5.32844Z" fill="white"/>
<path d="M20.2679 55.0874C17.0853 52.3687 14.0454 53.4457 12.1285 54.1245L11.5953 54.3084L11.3195 54.4558C9.47242 55.6104 8.37275 57.2092 8.05157 59.2073C7.53755 62.4192 9.28257 65.7462 10.7088 67.8369L9.73987 68.1587L9.833 69.6398C10.31 77.2742 11.5309 84.3749 12.8228 91.8983L13.5445 96.1453H17.4525L16.6209 91.2374C15.4215 84.2657 14.2866 77.6712 13.7696 70.7395C15.1314 69.9628 15.4334 69.0285 15.4334 68.3509V67.6536L14.9863 67.1187C13.3225 65.123 11.5046 62.012 11.8574 59.8163C11.9876 58.9966 12.4132 58.3662 13.1905 57.8342L13.5147 57.7196C15.1164 57.1542 16.2752 56.7447 17.7629 58.0163L18.339 58.5094L20.844 55.5788L20.2679 55.0874Z" fill="white"/>
<path d="M25.3806 77.2995L21.7007 76.1604L21.4768 76.8863C19.8458 82.1674 20.4518 87.5219 21.0386 92.6996C21.1419 93.6094 21.2428 94.5378 21.3336 95.4613L21.4016 96.1455H25.2707L25.1913 95.3133C25.0905 94.2918 24.9806 93.2674 24.8684 92.2656C24.3239 87.4848 23.7627 82.5411 25.1567 78.0242L25.3806 77.2995Z" fill="white"/>
<path d="M85.8671 67.5068L84.8743 67.2829C86.2373 64.791 87.4551 61.4741 86.6492 58.4312C86.1292 56.4754 84.8761 54.9955 82.7944 53.9687L81.9807 53.7585C80.1109 53.2994 76.9778 52.5275 74.0818 55.5573L73.557 56.1053L76.3438 58.7691L76.8668 58.2211C78.219 56.8044 79.4094 57.0951 81.0565 57.4975L81.3992 57.5811C82.2254 58.0312 82.7114 58.6163 82.9245 59.418C83.4952 61.5678 81.998 64.8447 80.5425 66.9969L80.1515 67.5748L80.2225 68.2685C80.2894 68.9437 80.6846 69.8434 82.1174 70.4792C82.2971 77.4271 81.8314 84.1027 81.3377 91.1663C81.2434 92.5102 81.1532 93.8683 81.0625 95.2301L81.0034 96.125L84.254 95.7961L84.8964 95.642L85.1812 91.4362C85.7131 83.8245 86.2152 76.636 85.9238 68.9897L85.8671 67.5068Z" fill="white"/>
<path d="M74.7708 76.6685L71.2228 78.1711L71.5177 78.8684C73.3577 83.2181 73.295 88.1947 73.2359 93.0095C73.2239 94.0184 73.2162 95.0482 73.221 96.0744L73.2239 96.9102L77.074 96.5222L77.0728 95.8344C77.0716 94.9073 77.077 93.9724 77.0895 93.0572C77.154 87.8478 77.2208 82.4593 75.0669 77.3675L74.7708 76.6685Z" fill="white"/>
</g>
<defs>
<clipPath id="clip0_9_176">
<rect width="97" height="97" fill="white"/>
</clipPath>
</defs>
</svg>
