<svg width="97" height="97" viewBox="0 0 97 97" fill="none" xmlns="http://www.w3.org/2000/svg">
<g clip-path="url(#clip0_202_133)">
<path d="M64.106 76.2666C58.4584 76.2152 53.7158 74.6081 49.7034 71.6046C36.3838 61.6342 22.9848 51.7175 11.8735 39.1751C10.1142 37.1889 8.56675 34.9227 7.34827 32.5652C1.09175 20.4617 7.51424 8.94322 21.1437 7.65012C25.6528 7.22267 29.9852 7.96056 34.0615 9.91393C36.1904 10.9348 38.2739 12.0816 40.2727 13.3395C40.3425 13.3831 48.5452 17.8289 57.2065 13.167C63.3908 8.88173 70.0622 6.51941 77.6686 8.11876C91.4275 11.0118 96.2173 23.7374 87.8933 35.112C83.6296 40.9387 78.2978 45.5845 72.2269 49.4119C65.3937 53.7186 58.0333 56.8934 50.4121 59.5166C48.4748 60.1835 46.7596 60.0718 45.0797 58.9131C38.8775 54.6356 32.9153 50.0584 28.0665 44.2401C24.0791 39.4557 23.9305 34.8887 27.3799 31.6637C31.0837 28.2011 36.9026 28.748 41.0667 33.0058C43.0499 35.0338 44.4779 37.4534 45.845 39.9315C46.5758 41.2557 46.7781 43.5207 48.4223 43.5625C49.8151 43.5983 50.1362 41.4258 50.8831 40.2109C52.5744 37.4588 54.3069 34.7407 56.7754 32.6112C59.3013 30.4321 62.1633 29.0423 65.614 29.6095C71.0831 30.5073 73.7648 36.8188 70.7082 41.4491C69.9989 42.5237 69.1984 43.5625 67.8145 42.895C66.1077 42.0712 67.0933 40.9243 67.756 39.9297C69.1321 37.8641 69.039 35.8296 67.3739 34.0535C65.6265 32.1885 63.3979 32.5097 61.4022 33.487C57.6035 35.3466 55.625 38.922 53.4472 42.3243C51.9941 44.5941 51.3655 48.2937 48.0509 48.1456C44.9824 48.0083 44.6379 44.3851 43.3114 42.1619C41.7317 39.5136 40.3903 36.7197 37.9921 34.6583C35.1397 32.2064 31.8419 31.9306 29.6473 34.1305C27.0056 36.7788 28.3673 39.3381 30.2151 41.6246C34.8155 47.3128 40.5938 51.6948 46.5071 55.8988C47.3614 56.506 48.2247 56.8033 49.4724 56.3645C63.0445 51.5855 75.7415 45.5009 84.7854 33.6792C86.7841 31.0661 88.2312 28.2256 88.5685 24.9362C89.3488 17.3077 83.2332 11.2769 74.3337 10.9223C68.6032 10.6936 63.9149 13.2416 58.9993 16.0164C50.7858 20.6545 42.9609 18.3943 38.8948 16.4678C38.7378 16.3931 28.1763 7.96832 18.6823 11.4506C9.26822 13.8577 5.66414 21.627 9.89805 30.3312C12.8496 36.3979 17.7712 40.8002 22.5024 45.3475C31.2305 53.7359 40.9801 60.8963 50.5876 68.2005C56.0041 72.318 62.2225 74.315 69.1094 72.2004C73.2705 70.9229 75.0782 68.1814 74.2227 64.8174C73.4693 61.8527 70.3279 60.2145 66.3835 60.9572C62.5371 61.6825 58.9879 63.2622 55.5653 65.1517C54.5642 65.7051 53.2508 66.5964 52.4424 65.0914C51.6878 63.689 52.8997 62.8867 53.9958 62.301C58.5014 59.8933 63.0756 57.6116 68.3375 57.5465C73.0932 57.4868 76.5874 60.15 77.5509 64.3648C78.4918 68.4799 76.3802 72.4488 72.1786 74.5514C69.4664 75.909 66.5966 76.3985 64.106 76.2666Z" fill="#035678"/>
<path d="M30.8419 76.1967C27.4952 76.3776 24.3986 75.6755 21.6124 73.8869C18.5522 71.9222 16.8991 69.0542 17.2477 65.4328C17.5952 61.8335 19.7611 59.3005 23.0696 57.9059C24.1824 57.4372 25.7908 56.5871 26.4958 58.3721C27.0731 59.8318 25.7531 60.3607 24.5884 60.8706C22.0715 61.9726 20.3354 63.7738 20.6034 66.711C20.884 69.7897 23.0637 71.3389 25.7687 72.1681C30.4473 73.6027 35.0227 73.0577 39.4268 71.0613C40.7975 70.4392 42.3383 69.4154 43.1455 71.2989C43.8368 72.9108 42.0309 73.5376 40.8906 74.0517C37.6955 75.4928 34.3415 76.3585 30.8419 76.1967Z" fill="#035678"/>
<path d="M48.4641 12.7892C46.2212 12.8894 44.2815 12.0948 42.564 10.7271C41.7754 10.0997 41.3807 9.21792 41.884 8.26988C42.4709 7.16365 43.5335 7.34872 44.2875 7.93198C47.008 10.0382 49.6957 9.80417 52.3977 8.01377C53.4508 7.31648 54.4896 7.18633 55.1744 8.27645C55.9385 9.49313 54.8317 10.2537 54.0239 10.8597C52.3947 12.0805 50.5393 12.7874 48.4641 12.7892Z" fill="#035678"/>
<path d="M48.4252 5.32845C46.0301 5.41322 44.248 4.6216 42.6272 3.38403C41.8081 2.75897 41.386 1.92198 41.8344 0.959024C42.3675 -0.186016 43.4534 -0.0194537 44.2021 0.539933C47.0886 2.69867 49.8586 2.35361 52.6358 0.406205C53.5624 -0.243925 54.3546 -0.107809 55.0346 0.769179C55.8895 1.86944 54.9749 2.55778 54.3146 3.08135C52.52 4.50459 50.5189 5.50874 48.4252 5.32845Z" fill="#035678"/>
<path d="M20.2679 55.0876C17.0853 52.3688 14.0454 53.4458 12.1284 54.1246L11.5953 54.3085L11.3195 54.4559C9.47239 55.6105 8.37272 57.2093 8.05153 59.2074C7.53752 62.4193 9.28254 65.7464 10.7088 67.837L9.73984 68.1588L9.83297 69.64C10.31 77.2744 11.5308 84.375 12.8227 91.8984L13.5445 96.1454H17.4524L16.6208 91.2375C15.4215 84.2658 14.2866 77.6714 13.7696 70.7396C15.1313 69.9629 15.4334 69.0286 15.4334 68.351V67.6538L14.9863 67.1188C13.3224 65.1231 11.5046 62.0121 11.8574 59.8164C11.9875 58.9967 12.4132 58.3663 13.1905 57.8343L13.5147 57.7197C15.1164 57.1544 16.2752 56.7448 17.7629 58.0164L18.339 58.5096L20.844 55.5789L20.2679 55.0876Z" fill="#035678"/>
<path d="M25.3807 77.2995L21.7008 76.1604L21.4769 76.8863C19.8459 82.1674 20.4518 87.5219 21.0387 92.6996C21.142 93.6094 21.2429 94.5378 21.3336 95.4613L21.4017 96.1455H25.2708L25.1914 95.3133C25.0905 94.2918 24.9807 93.2674 24.8684 92.2656C24.324 87.4848 23.7628 82.5411 25.1568 78.0242L25.3807 77.2995Z" fill="#035678"/>
<path d="M85.8671 67.5069L84.8743 67.283C86.2372 64.7911 87.4551 61.4742 86.6492 58.4313C86.1292 56.4756 84.8761 54.9956 82.7943 53.9688L81.9806 53.7586C80.1108 53.2995 76.9778 52.5276 74.0818 55.5574L73.557 56.1054L76.3438 58.7692L76.8668 58.2212C78.219 56.8045 79.4094 57.0952 81.0565 57.4976L81.3992 57.5812C82.2254 58.0313 82.7114 58.6164 82.9245 59.4182C83.4952 61.5679 81.9979 64.8449 80.5425 66.997L80.1514 67.5749L80.2225 68.2686C80.2893 68.9438 80.6846 69.8435 82.1173 70.4793C82.297 77.4272 81.8314 84.1028 81.3377 91.1665C81.2433 92.5103 81.1532 93.8685 81.0625 95.2302L81.0034 96.1251L84.254 95.7962L84.8964 95.6421L85.1811 91.4363C85.7131 83.8246 86.2151 76.6362 85.9238 68.9898L85.8671 67.5069Z" fill="#035678"/>
<path d="M74.7707 76.6683L71.2228 78.171L71.5177 78.8683C73.3576 83.218 73.295 88.1946 73.2359 93.0093C73.2239 94.0183 73.2162 95.0481 73.2209 96.0743L73.2239 96.9101L77.0739 96.5221L77.0728 95.8343C77.0716 94.9072 77.0769 93.9723 77.0895 93.0571C77.1539 87.8477 77.2208 82.4592 75.0668 77.3674L74.7707 76.6683Z" fill="#035678"/>
</g>
<defs>
<clipPath id="clip0_202_133">
<rect width="97" height="97" fill="white"/>
</clipPath>
</defs>
</svg>
